<svg width="20" height="20" viewBox="0 0 20 20" fill="none" xmlns="http://www.w3.org/2000/svg">
	<g clip-path="url(#clip0_179_446)">
		<path fill-rule="evenodd" clip-rule="evenodd" d="M19.6926 1.7726C19.6926 1.7726 19.4446 18.6073 19.4446 18.8889C19.4446 19.1705 19.2803 19.4288 19.0179 19.5605C18.7555 19.6921 18.4387 19.6749 18.1934 19.5159C17.9481 19.3569 17.2652 18.3761 15.9832 18.3761C14.7011 18.3761 13.771 19.49 13.771 19.49C13.4691 19.6967 13.0574 19.6774 12.7779 19.4444C12.7779 19.4444 11.2823 18.3761 10.4276 18.3761C9.57291 18.3761 8.3335 19.4444 8.3335 19.4444C8.05404 19.6774 7.6423 19.6967 7.34044 19.49C7.34044 19.49 6.1541 18.3761 4.87205 18.3761C3.59 18.3761 2.22238 19.4444 2.22238 19.4444C1.97704 19.6035 1.66025 19.6207 1.39785 19.489C1.13545 19.3573 0.971178 19.099 0.971178 18.8175L1.0259 1.7726C1.0259 0.794124 1.8611 0 2.89257 0H17.8259C18.8574 0 19.6926 0.794124 19.6926 1.7726ZM6.09257 9.62268H14.6259C15.0675 9.62268 15.4259 9.28234 15.4259 8.863C15.4259 8.44365 15.0675 8.10331 14.6259 8.10331H6.09257C5.65097 8.10331 5.29256 8.44365 5.29256 8.863C5.29256 9.28234 5.65097 9.62268 6.09257 9.62268ZM6.09257 5.57102H14.6259C15.0675 5.57102 15.4259 5.23069 15.4259 4.81134C15.4259 4.39199 15.0675 4.05165 14.6259 4.05165H6.09257C5.65097 4.05165 5.29256 4.39199 5.29256 4.81134C5.29256 5.23069 5.65097 5.57102 6.09257 5.57102ZM6.09257 13.6743H10.3592C10.8008 13.6743 11.1592 13.334 11.1592 12.9146C11.1592 12.4953 10.8008 12.155 10.3592 12.155H6.09257C5.65097 12.155 5.29256 12.4953 5.29256 12.9146C5.29256 13.334 5.65097 13.6743 6.09257 13.6743Z" fill="#101828" />
	</g>
	<defs>
		<clipPath id="clip0_179_446">
			<rect width="20" height="20" fill="white" />
		</clipPath>
	</defs>
</svg>
