<svg width="18" height="18" viewBox="0 0 18 18" fill="none" xmlns="http://www.w3.org/2000/svg">
	<g clip-path="url(#clip0_125_1089)">
		<path opacity="0.7" d="M3.5494 15.5372C4.60952 15.5372 5.46892 14.6778 5.46892 13.6177C5.46892 12.5576 4.60952 11.6982 3.5494 11.6982C2.48928 11.6982 1.62988 12.5576 1.62988 13.6177C1.62988 14.6778 2.48928 15.5372 3.5494 15.5372Z" fill="#1E2939" />
		<path opacity="0.4" d="M15.8994 13.835C16.8195 13.835 17.5654 13.0891 17.5654 12.169C17.5654 11.2489 16.8195 10.503 15.8994 10.503C14.9793 10.503 14.2334 11.2489 14.2334 12.169C14.2334 13.0891 14.9793 13.835 15.8994 13.835Z" fill="#1E2939" />
		<path opacity="0.2" d="M14.3782 5.43257C15.1383 5.43257 15.7545 4.8164 15.7545 4.05631C15.7545 3.29623 15.1383 2.68005 14.3782 2.68005C13.6181 2.68005 13.002 3.29623 13.002 4.05631C13.002 4.8164 13.6181 5.43257 14.3782 5.43257Z" fill="#1E2939" />
		<path opacity="0.8" d="M2.03704 10.8517C3.16207 10.8517 4.07408 9.96195 4.07408 8.86434C4.07408 7.76674 3.16207 6.87695 2.03704 6.87695C0.912015 6.87695 0 7.76674 0 8.86434C0 9.96195 0.912015 10.8517 2.03704 10.8517Z" fill="#1E2939" />
		<path opacity="0.6" d="M7.88897 18C8.91173 18 9.74084 17.1921 9.74084 16.1955C9.74084 15.1988 8.91173 14.3909 7.88897 14.3909C6.86622 14.3909 6.03711 15.1988 6.03711 16.1955C6.03711 17.1921 6.86622 18 7.88897 18Z" fill="#1E2939" />
		<path opacity="0.5" d="M12.6482 17.2094C13.6198 17.2094 14.4074 16.4425 14.4074 15.4964C14.4074 14.5504 13.6198 13.7834 12.6482 13.7834C11.6766 13.7834 10.8889 14.5504 10.8889 15.4964C10.8889 16.4425 11.6766 17.2094 12.6482 17.2094Z" fill="#1E2939" />
		<path opacity="0.9" d="M4.2407 6.23626C5.41685 6.23626 6.37031 5.30557 6.37031 4.1575C6.37031 3.00943 5.41685 2.07874 4.2407 2.07874C3.06454 2.07874 2.11108 3.00943 2.11108 4.1575C2.11108 5.30557 3.06454 6.23626 4.2407 6.23626Z" fill="#1E2939" />
		<path opacity="0.3" d="M16.4259 9.38512C17.2952 9.38512 18 8.69345 18 7.84023C18 6.98702 17.2952 6.29535 16.4259 6.29535C15.5565 6.29535 14.8518 6.98702 14.8518 7.84023C14.8518 8.69345 15.5565 9.38512 16.4259 9.38512Z" fill="#1E2939" />
		<path d="M9.52526 4.49095C10.7654 4.49095 11.7707 3.48561 11.7707 2.24547C11.7707 1.00533 10.7654 0 9.52526 0C8.28512 0 7.27979 1.00533 7.27979 2.24547C7.27979 3.48561 8.28512 4.49095 9.52526 4.49095Z" fill="#1E2939" />
	</g>
	<defs>
		<clipPath id="clip0_125_1089">
			<rect width="18" height="18" fill="white" />
		</clipPath>
	</defs>
</svg>
