<svg width="107" height="20" viewBox="0 0 107 20" fill="none" xmlns="http://www.w3.org/2000/svg">
	<path d="M12.0236 15.0372H9.51224L5.9964 9.21092H2.25506V15.0372H0V0.148883H5.96565C7.11368 0.148883 8.0977 0.330852 8.91773 0.694789C9.73775 1.05873 10.3698 1.57816 10.814 2.2531C11.2582 2.92804 11.4803 3.73532 11.4803 4.67494C11.4803 5.72705 11.2035 6.61373 10.65 7.33499C10.0965 8.05624 9.31407 8.56907 8.30271 8.87345L12.0236 15.0372ZM2.25506 7.36476H5.8119C6.86426 7.36476 7.68769 7.13317 8.28221 6.66998C8.87672 6.20017 9.17398 5.54839 9.17398 4.71464C9.17398 3.88751 8.87672 3.24235 8.28221 2.77916C7.69453 2.30935 6.87109 2.07444 5.8119 2.07444H2.25506V7.36476Z" fill="#101828" />
	<path d="M21.5272 13.8561C20.2562 14.7758 18.8587 15.2357 17.3348 15.2357C16.2483 15.2357 15.2745 15.0041 14.4135 14.5409C13.5525 14.0778 12.8725 13.4458 12.3737 12.6452C11.8749 11.8445 11.6254 10.9413 11.6254 9.93548C11.6254 8.97601 11.8544 8.11911 12.3122 7.36476C12.77 6.60381 13.3953 6.00496 14.188 5.56824C14.9807 5.13151 15.8793 4.91315 16.8838 4.91315C17.9225 4.91315 18.8348 5.15137 19.6206 5.62779C20.4133 6.10422 21.0283 6.76923 21.4657 7.62283C21.9099 8.46981 22.132 9.45244 22.132 10.5707V10.8883H13.901C14.024 11.4045 14.2529 11.8577 14.5878 12.2481C14.9294 12.6319 15.3531 12.933 15.8588 13.1514C16.3713 13.3631 16.9453 13.469 17.5808 13.469C18.7152 13.469 19.7573 13.1117 20.7072 12.397L21.5272 13.8561ZM13.8087 9.47891H20.1742C20.1058 8.92308 19.9281 8.44003 19.6411 8.02978C19.3541 7.6129 18.9817 7.28867 18.5239 7.05707C18.0728 6.81886 17.5638 6.69975 16.9966 6.69975C16.4226 6.69975 15.9066 6.81886 15.4488 7.05707C14.9909 7.28867 14.6185 7.6129 14.3315 8.02978C14.0513 8.44665 13.8771 8.92969 13.8087 9.47891Z" fill="#101828" />
	<path d="M31.3588 13.5583C30.86 14.0943 30.262 14.5079 29.565 14.799C28.868 15.0902 28.1129 15.2357 27.2997 15.2357C26.2747 15.2357 25.3522 15.0108 24.5322 14.5608C23.719 14.1108 23.0766 13.4955 22.6051 12.7146C22.1336 11.9338 21.8978 11.0538 21.8978 10.0744C21.8978 9.0885 22.1336 8.20844 22.6051 7.43424C23.0766 6.65343 23.719 6.03805 24.5322 5.58809C25.3522 5.13813 26.2747 4.91315 27.2997 4.91315C28.1061 4.91315 28.8578 5.05873 29.5548 5.34988C30.2518 5.63441 30.8497 6.04467 31.3486 6.58065L30.1083 7.84119C29.7734 7.49711 29.3703 7.23242 28.8988 7.04715C28.4341 6.85525 27.9387 6.75931 27.4125 6.75931C26.7633 6.75931 26.1859 6.90157 25.6802 7.1861C25.1745 7.47064 24.7782 7.86104 24.4911 8.35732C24.2041 8.84698 24.0606 9.41605 24.0606 10.0645C24.0606 10.7064 24.2041 11.2787 24.4911 11.7816C24.7782 12.2845 25.1745 12.6782 25.6802 12.9628C26.1859 13.2473 26.7633 13.3896 27.4125 13.3896C27.9387 13.3896 28.4375 13.2936 28.909 13.1017C29.3805 12.9098 29.7803 12.6452 30.1083 12.3077L31.3588 13.5583Z" fill="#101828" />
	<path d="M41.006 13.8561C39.7349 14.7758 38.3375 15.2357 36.8136 15.2357C35.7271 15.2357 34.7533 15.0041 33.8923 14.5409C33.0313 14.0778 32.3513 13.4458 31.8525 12.6452C31.3536 11.8445 31.1042 10.9413 31.1042 9.93548C31.1042 8.97601 31.3331 8.11911 31.791 7.36476C32.2488 6.60381 32.8741 6.00496 33.6668 5.56824C34.4595 5.13151 35.3581 4.91315 36.3626 4.91315C37.4013 4.91315 38.3136 5.15137 39.0994 5.62779C39.8921 6.10422 40.5071 6.76923 40.9445 7.62283C41.3886 8.46981 41.6107 9.45244 41.6107 10.5707V10.8883H33.3798C33.5028 11.4045 33.7317 11.8577 34.0665 12.2481C34.4082 12.6319 34.8319 12.933 35.3376 13.1514C35.8501 13.3631 36.4241 13.469 37.0596 13.469C38.194 13.469 39.2361 13.1117 40.1859 12.397L41.006 13.8561ZM33.2875 9.47891H39.6529C39.5846 8.92308 39.4069 8.44003 39.1199 8.02978C38.8329 7.6129 38.4605 7.28867 38.0026 7.05707C37.5516 6.81886 37.0425 6.69975 36.4753 6.69975C35.9013 6.69975 35.3854 6.81886 34.9276 7.05707C34.4697 7.28867 34.0973 7.6129 33.8103 8.02978C33.5301 8.44665 33.3558 8.92969 33.2875 9.47891Z" fill="#101828" />
	<path d="M43.2217 2.23325C42.9005 2.23325 42.6306 2.12407 42.4119 1.90571C42.1932 1.68734 42.0839 1.42266 42.0839 1.11166C42.0839 0.800662 42.1932 0.539289 42.4119 0.327543C42.6306 0.109181 42.9005 0 43.2217 0C43.5497 0 43.823 0.109181 44.0417 0.327543C44.2672 0.539289 44.3799 0.800662 44.3799 1.11166C44.3799 1.42266 44.2672 1.68734 44.0417 1.90571C43.823 2.12407 43.5497 2.23325 43.2217 2.23325ZM44.2672 15.0372H42.1659V5.11166H44.2672V15.0372Z" fill="#101828" />
	<path d="M47.6822 20H45.5809V5.11166H47.4362L47.5489 6.53102C48.0136 6.02812 48.5705 5.63441 49.2197 5.34988C49.8757 5.05873 50.5932 4.91315 51.3722 4.91315C52.3563 4.91315 53.2344 5.13813 54.0066 5.58809C54.7856 6.03805 55.3972 6.65343 55.8414 7.43424C56.2924 8.20844 56.5179 9.0885 56.5179 10.0744C56.5179 11.0538 56.2924 11.9338 55.8414 12.7146C55.3972 13.4955 54.7856 14.1108 54.0066 14.5608C53.2344 15.0108 52.3563 15.2357 51.3722 15.2357C50.6342 15.2357 49.9509 15.1067 49.3222 14.8486C48.6935 14.5906 48.1468 14.2299 47.6822 13.7668V20ZM51.034 13.3896C51.6832 13.3896 52.2572 13.2473 52.756 12.9628C53.2549 12.6782 53.6444 12.2878 53.9246 11.7916C54.2116 11.2887 54.3551 10.713 54.3551 10.0645C54.3551 9.41605 54.2116 8.84367 53.9246 8.34739C53.6444 7.8445 53.2549 7.45079 52.756 7.16625C52.2572 6.88172 51.6866 6.73945 51.0442 6.73945C50.4361 6.73945 49.886 6.87179 49.394 7.13648C48.9088 7.39454 48.5124 7.75186 48.2049 8.20844C47.9042 8.66501 47.73 9.18445 47.6822 9.76675V10.3821C47.73 10.9644 47.9008 11.4839 48.1947 11.9404C48.4953 12.3904 48.8883 12.7444 49.3735 13.0025C49.8655 13.2605 50.419 13.3896 51.034 13.3896Z" fill="#101828" />
	<path d="M63.2949 14.7891C62.5774 15.0868 61.8838 15.2357 61.2141 15.2357C60.5445 15.2357 59.9568 15.0968 59.4511 14.8189C58.9523 14.5409 58.5593 14.1505 58.2723 13.6476C57.9921 13.1381 57.8521 12.5525 57.8521 11.8908V6.92804H56.0583V5.11166H57.9546V2.63027H59.9534V5.11166H62.9464V6.92804H59.9534V11.5136C59.9534 12.0959 60.1139 12.5591 60.4351 12.9032C60.7631 13.2407 61.1834 13.4094 61.6959 13.4094C62.1264 13.4094 62.5535 13.2837 62.9772 13.0323L63.2949 14.7891Z" fill="#101828" />
	<path d="M67.9826 15.0372H67.0806V0.148883H67.9826V7.28536H77.8433V0.148883H78.7454V15.0372H77.8433V8.0794H67.9826V15.0372Z" fill="#101828" />
	<path d="M89.4585 13.7767C88.2148 14.7494 86.8242 15.2357 85.2867 15.2357C84.2411 15.2357 83.305 15.0108 82.4781 14.5608C81.6581 14.1042 81.0123 13.4822 80.5408 12.6948C80.0693 11.9007 79.8335 10.9975 79.8335 9.98511C79.8335 9.00579 80.0522 8.13565 80.4895 7.37469C80.9337 6.60711 81.5419 6.00496 82.3141 5.56824C83.0863 5.13151 83.9644 4.91315 84.9484 4.91315C85.9324 4.91315 86.8003 5.13482 87.552 5.57816C88.3105 6.01489 88.9016 6.62366 89.3253 7.40447C89.7489 8.18528 89.9608 9.08519 89.9608 10.1042V10.3921H80.7253C80.7663 11.1927 80.9918 11.9007 81.4018 12.5161C81.8187 13.1315 82.3688 13.6146 83.0521 13.9653C83.7355 14.316 84.5008 14.4913 85.3482 14.4913C86.6875 14.4913 87.9176 14.0513 89.0383 13.1712L89.4585 13.7767ZM80.7048 9.67742H89.1715C89.1305 8.88337 88.9255 8.18528 88.5565 7.58313C88.1943 6.98098 87.7057 6.51117 87.0907 6.1737C86.4757 5.82961 85.7719 5.65757 84.9792 5.65757C84.1865 5.65757 83.4758 5.82961 82.8471 6.1737C82.2184 6.51778 81.7162 6.9909 81.3403 7.59305C80.9645 8.18859 80.7526 8.88337 80.7048 9.67742Z" fill="#101828" />
	<path d="M91.8895 15.0372H91.049V5.11166H91.8177L91.8382 7.5335C92.1594 6.6799 92.6719 6.03143 93.3758 5.58809C94.0796 5.13813 94.9099 4.91315 95.8666 4.91315C96.0237 4.91315 96.1775 4.91977 96.3278 4.933C96.485 4.94624 96.6422 4.96609 96.7994 4.99256L96.6968 5.73697C96.3893 5.67742 96.0921 5.64764 95.8051 5.64764C95.0397 5.64764 94.3598 5.82961 93.7653 6.19355C93.1776 6.55087 92.7163 7.04715 92.3815 7.68238C92.0535 8.311 91.8895 9.03226 91.8895 9.84615V15.0372Z" fill="#101828" />
	<path d="M101.742 15.2357C100.744 15.2357 99.8453 15.0108 99.0458 14.5608C98.2531 14.1042 97.6244 13.4888 97.1598 12.7146C96.6951 11.9404 96.4627 11.0604 96.4627 10.0744C96.4627 9.09512 96.6951 8.21836 97.1598 7.44417C97.6244 6.66336 98.2531 6.04797 99.0458 5.59802C99.8453 5.14144 100.744 4.91315 101.742 4.91315C102.746 4.91315 103.645 5.14144 104.437 5.59802C105.23 6.04797 105.855 6.66336 106.313 7.44417C106.771 8.21836 107 9.09512 107 10.0744C107 11.0538 106.771 11.9338 106.313 12.7146C105.855 13.4888 105.23 14.1042 104.437 14.5608C103.645 15.0108 102.746 15.2357 101.742 15.2357ZM101.742 14.4913C102.575 14.4913 103.324 14.2994 103.986 13.9156C104.656 13.5252 105.182 12.9992 105.565 12.3375C105.948 11.6691 106.139 10.9148 106.139 10.0744C106.139 9.23408 105.948 8.48304 105.565 7.82134C105.182 7.15302 104.66 6.62696 103.997 6.24318C103.334 5.85277 102.582 5.65757 101.742 5.65757C100.908 5.65757 100.156 5.85277 99.4866 6.24318C98.8169 6.62696 98.2873 7.15302 97.8978 7.82134C97.5151 8.48304 97.3238 9.23408 97.3238 10.0744C97.3238 10.9148 97.5151 11.6691 97.8978 12.3375C98.2873 12.9992 98.8135 13.5252 99.4763 13.9156C100.146 14.2994 100.901 14.4913 101.742 14.4913Z" fill="#101828" />
</svg>
