<svg width="69" height="15" viewBox="0 0 69 15" fill="none" xmlns="http://www.w3.org/2000/svg">
	<path d="M1.36147 4.33516H-0.00195312V3.17184H1.36147V0.953795H2.57669V3.17184H4.48845V4.33516H2.57669V9.00392C2.57669 9.33481 2.63597 9.57265 2.75453 9.71741C2.88297 9.85184 3.10032 9.91905 3.4066 9.91905H4.72556V11.0824H3.3325C2.62115 11.0824 2.11234 10.9169 1.80606 10.586C1.50967 10.2551 1.36147 9.73292 1.36147 9.01943V4.33516Z" fill="#181818" />
	<path d="M8.64089 11.1754C7.90978 11.1754 7.25771 11.0048 6.68468 10.6636C6.12152 10.3223 5.68187 9.84667 5.36572 9.23658C5.04956 8.62649 4.89148 7.92333 4.89148 7.12711C4.89148 6.33088 5.04956 5.62773 5.36572 5.01763C5.68187 4.40754 6.12152 3.93187 6.68468 3.59064C7.25771 3.2494 7.90978 3.07878 8.64089 3.07878C9.372 3.07878 10.0191 3.2494 10.5823 3.59064C11.1553 3.93187 11.5999 4.40754 11.9161 5.01763C12.2322 5.62773 12.3903 6.33088 12.3903 7.12711C12.3903 7.92333 12.2322 8.62649 11.9161 9.23658C11.5999 9.84667 11.1553 10.3223 10.5823 10.6636C10.0191 11.0048 9.372 11.1754 8.64089 11.1754ZM8.64089 10.0431C9.13488 10.0431 9.5696 9.91905 9.94503 9.67088C10.3303 9.42271 10.6267 9.0763 10.8342 8.63166C11.0417 8.18701 11.1454 7.6855 11.1454 7.12711C11.1454 6.56872 11.0417 6.0672 10.8342 5.62256C10.6267 5.17791 10.3303 4.8315 9.94503 4.58333C9.5696 4.33516 9.13488 4.21107 8.64089 4.21107C8.1469 4.21107 7.70724 4.33516 7.32193 4.58333C6.94649 4.8315 6.65504 5.17791 6.44756 5.62256C6.24008 6.0672 6.13634 6.56872 6.13634 7.12711C6.13634 7.6855 6.24008 8.18701 6.44756 8.63166C6.65504 9.0763 6.94649 9.42271 7.32193 9.67088C7.70724 9.91905 8.1469 10.0431 8.64089 10.0431Z" fill="#181818" />
	<path d="M20.7129 3.17184V10.6946C20.7129 13.0833 19.4631 14.2776 16.9635 14.2776C15.9854 14.2776 15.1851 14.0449 14.5627 13.5796C13.9501 13.1143 13.5945 12.4525 13.4957 11.5942H14.7405C14.8393 12.0906 15.0913 12.4732 15.4963 12.742C15.9014 13.0109 16.4201 13.1453 17.0524 13.1453C18.6826 13.1453 19.4977 12.3129 19.4977 10.6481V9.71741C18.9543 10.6894 18.0898 11.1754 16.9042 11.1754C16.2027 11.1754 15.5754 11.0152 15.0221 10.6946C14.4787 10.374 14.0489 9.90871 13.7328 9.29862C13.4265 8.68853 13.2734 7.96469 13.2734 7.12711C13.2734 6.33088 13.4265 5.62773 13.7328 5.01763C14.0489 4.40754 14.4836 3.93187 15.0369 3.59064C15.5902 3.2494 16.2126 3.07878 16.9042 3.07878C17.5168 3.07878 18.0404 3.20804 18.4751 3.46655C18.9098 3.71472 19.2507 4.07147 19.4977 4.5368L19.6607 3.17184H20.7129ZM17.0228 10.0431C17.5069 10.0431 17.9367 9.92423 18.3121 9.68639C18.6974 9.43822 18.9938 9.09698 19.2013 8.66268C19.4088 8.21803 19.5125 7.71652 19.5125 7.15813C19.5125 6.5894 19.4088 6.08271 19.2013 5.63807C18.9938 5.18308 18.6974 4.8315 18.3121 4.58333C17.9367 4.33516 17.5069 4.21107 17.0228 4.21107C16.2719 4.21107 15.6643 4.48509 15.1999 5.03314C14.7455 5.57085 14.5182 6.26884 14.5182 7.12711C14.5182 7.98537 14.7455 8.68853 15.1999 9.23658C15.6643 9.77429 16.2719 10.0431 17.0228 10.0431Z" fill="#181818" />
	<path d="M21.8579 7.12711C21.8579 6.32054 22.006 5.61222 22.3024 5.00212C22.6087 4.39203 23.0336 3.92153 23.5769 3.59064C24.1203 3.2494 24.7428 3.07878 25.4442 3.07878C26.1358 3.07878 26.7484 3.22872 27.2819 3.52859C27.8154 3.82847 28.2353 4.26277 28.5416 4.8315C28.8479 5.40023 29.0109 6.0672 29.0306 6.8324C29.0306 6.94615 29.0208 7.12711 29.001 7.37528H23.1324V7.48385C23.1521 8.2594 23.3793 8.87983 23.8141 9.34515C24.2488 9.81048 24.8169 10.0431 25.5183 10.0431C26.0617 10.0431 26.5211 9.90354 26.8966 9.62435C27.2819 9.33481 27.5388 8.9367 27.6672 8.43002H28.8973C28.7491 9.23658 28.3786 9.89837 27.7858 10.4154C27.193 10.9221 26.4668 11.1754 25.6073 11.1754C24.8564 11.1754 24.1994 11.01 23.6362 10.6791C23.0731 10.3378 22.6334 9.86218 22.3173 9.25209C22.011 8.63166 21.8579 7.92333 21.8579 7.12711ZM27.7709 6.32054C27.7117 5.64841 27.4696 5.12621 27.0448 4.75395C26.6298 4.38169 26.1013 4.19556 25.4591 4.19556C24.886 4.19556 24.3822 4.39203 23.9474 4.78497C23.5127 5.17791 23.2657 5.68977 23.2064 6.32054H27.7709Z" fill="#181818" />
	<path d="M30.5907 4.33516H29.2272V3.17184H30.5907V0.953795H31.8059V3.17184H33.7176V4.33516H31.8059V9.00392C31.8059 9.33481 31.8652 9.57265 31.9837 9.71741C32.1122 9.85184 32.3295 9.91905 32.6358 9.91905H33.9547V11.0824H32.5617C31.8503 11.0824 31.3415 10.9169 31.0352 10.586C30.7388 10.2551 30.5907 9.73292 30.5907 9.01943V4.33516Z" fill="#181818" />
	<path d="M38.2805 3.07878C39.1993 3.07878 39.9403 3.36831 40.5035 3.94739C41.0666 4.52646 41.3482 5.43643 41.3482 6.67729V11.0824H40.133V6.75485C40.133 5.93794 39.9552 5.31751 39.5995 4.89355C39.2438 4.45924 38.735 4.24209 38.073 4.24209C37.3716 4.24209 36.8134 4.50061 36.3984 5.01763C35.9933 5.53466 35.7908 6.23782 35.7908 7.12711V11.0824H34.5756V0.224786H35.7908V4.47475C36.0378 4.06113 36.3638 3.72506 36.7689 3.46655C37.1838 3.20804 37.6877 3.07878 38.2805 3.07878Z" fill="#181818" />
	<path d="M42.3868 7.12711C42.3868 6.32054 42.535 5.61222 42.8314 5.00212C43.1376 4.39203 43.5625 3.92153 44.1059 3.59064C44.6493 3.2494 45.2717 3.07878 45.9732 3.07878C46.6647 3.07878 47.2773 3.22872 47.8108 3.52859C48.3443 3.82847 48.7642 4.26277 49.0705 4.8315C49.3768 5.40023 49.5398 6.0672 49.5595 6.8324C49.5595 6.94615 49.5497 7.12711 49.5299 7.37528H43.6613V7.48385C43.681 8.2594 43.9083 8.87983 44.343 9.34515C44.7777 9.81048 45.3458 10.0431 46.0473 10.0431C46.5906 10.0431 47.0501 9.90354 47.4255 9.62435C47.8108 9.33481 48.0677 8.9367 48.1961 8.43002H49.4262C49.278 9.23658 48.9075 9.89837 48.3147 10.4154C47.7219 10.9221 46.9957 11.1754 46.1362 11.1754C45.3853 11.1754 44.7283 11.01 44.1651 10.6791C43.602 10.3378 43.1623 9.86218 42.8462 9.25209C42.5399 8.63166 42.3868 7.92333 42.3868 7.12711ZM48.2999 6.32054C48.2406 5.64841 47.9985 5.12621 47.5737 4.75395C47.1587 4.38169 46.6302 4.19556 45.988 4.19556C45.4149 4.19556 44.9111 4.39203 44.4764 4.78497C44.0416 5.17791 43.7946 5.68977 43.7354 6.32054H48.2999Z" fill="#181818" />
	<path d="M54.5409 3.17184V4.41271H53.9332C53.212 4.41271 52.6933 4.66605 52.3772 5.17274C52.0709 5.67943 51.9178 6.30503 51.9178 7.04955V11.0824H50.7025V3.17184H51.7547L51.9178 4.36618C52.1351 4.00426 52.4167 3.71472 52.7625 3.49757C53.1083 3.28042 53.5875 3.17184 54.2 3.17184H54.5409Z" fill="#181818" />
	<path d="M66.9185 9.91905V11.0824H66.2516C65.7675 11.0824 65.4217 10.979 65.2142 10.7722C65.0067 10.5653 64.898 10.2603 64.8882 9.85701C64.3052 10.736 63.4605 11.1754 62.354 11.1754C61.5142 11.1754 60.8374 10.9686 60.3237 10.555C59.8198 10.1414 59.5678 9.57782 59.5678 8.86432C59.5678 8.0681 59.8247 7.458 60.3385 7.03404C60.8621 6.61008 61.6179 6.3981 62.6059 6.3981H64.8289V5.85522C64.8289 5.33819 64.6609 4.93491 64.325 4.64537C63.999 4.35584 63.5395 4.21107 62.9468 4.21107C62.4231 4.21107 61.9884 4.33516 61.6426 4.58333C61.3067 4.82116 61.0992 5.14172 61.0202 5.545H59.805C59.8939 4.76946 60.2199 4.16454 60.7831 3.73023C61.3561 3.29593 62.0971 3.07878 63.006 3.07878C63.9743 3.07878 64.7202 3.32695 65.2438 3.8233C65.7773 4.3093 66.0441 5.01246 66.0441 5.93277V9.34515C66.0441 9.72775 66.2121 9.91905 66.548 9.91905H66.9185ZM64.8289 7.46834H62.4873C61.361 7.46834 60.7979 7.90782 60.7979 8.78676C60.7979 9.17971 60.9461 9.49509 61.2425 9.73293C61.5389 9.97076 61.939 10.0897 62.4429 10.0897C63.1839 10.0897 63.7668 9.88803 64.1916 9.48475C64.6165 9.07113 64.8289 8.52825 64.8289 7.85611V7.46834Z" fill="#181818" />
	<path d="M68.2166 0.116211C68.4438 0.116211 68.6315 0.193765 68.7797 0.348873C68.9279 0.503981 69.002 0.700452 69.002 0.938284C69.002 1.17612 68.9279 1.37259 68.7797 1.5277C68.6315 1.6828 68.4438 1.76036 68.2166 1.76036C67.9894 1.76036 67.8016 1.6828 67.6534 1.5277C67.5052 1.37259 67.4311 1.17612 67.4311 0.938284C67.4311 0.700452 67.5052 0.503981 67.6534 0.348873C67.8016 0.193765 67.9894 0.116211 68.2166 0.116211ZM67.609 3.17184H68.8242V11.0824H67.609V3.17184Z" fill="#181818" />
	<path d="M57.1916 9.87785C57.1916 10.5431 56.6701 11.0824 56.0268 11.0824C55.3836 11.0824 54.8621 10.5431 54.8621 9.87785C54.8621 9.21262 55.3836 8.67334 56.0268 8.67334C56.6701 8.67334 57.1916 9.21262 57.1916 9.87785Z" fill="#0F6FFF" />
</svg>
