<svg width="24" height="24" viewBox="0 0 24 24" fill="none" xmlns="http://www.w3.org/2000/svg">
	<path fill-rule="evenodd" clip-rule="evenodd" d="M11.4921 2.86706C11.6268 2.73246 11.8095 2.65686 12 2.65686C12.1905 2.65686 12.3732 2.73246 12.5079 2.86706L16.8204 7.17956C16.9474 7.31581 17.0165 7.49602 17.0132 7.68223C17.0099 7.86843 16.9345 8.04609 16.8028 8.17778C16.6711 8.30947 16.4935 8.3849 16.3073 8.38819C16.121 8.39147 15.9408 8.32235 15.8046 8.19539L12.7188 5.10956V16.3125C12.7188 16.5031 12.643 16.6859 12.5082 16.8207C12.3734 16.9555 12.1906 17.0312 12 17.0312C11.8094 17.0312 11.6266 16.9555 11.4918 16.8207C11.357 16.6859 11.2812 16.5031 11.2812 16.3125V5.10956L8.19542 8.19539C8.05917 8.32235 7.87895 8.39147 7.69275 8.38819C7.50654 8.3849 7.32888 8.30947 7.1972 8.17778C7.06551 8.04609 6.99008 7.86843 6.98679 7.68223C6.98351 7.49602 7.05262 7.31581 7.17958 7.17956L11.4921 2.86706ZM3.375 15.5937C3.56562 15.5937 3.74844 15.6695 3.88323 15.8042C4.01802 15.939 4.09375 16.1219 4.09375 16.3125V18.4687C4.09375 18.85 4.2452 19.2156 4.51478 19.4852C4.78437 19.7548 5.15 19.9062 5.53125 19.9062H18.4688C18.85 19.9062 19.2156 19.7548 19.4852 19.4852C19.7548 19.2156 19.9062 18.85 19.9062 18.4687V16.3125C19.9062 16.1219 19.982 15.939 20.1168 15.8042C20.2516 15.6695 20.4344 15.5937 20.625 15.5937C20.8156 15.5937 20.9984 15.6695 21.1332 15.8042C21.268 15.939 21.3438 16.1219 21.3438 16.3125V18.4687C21.3438 19.2312 21.0408 19.9625 20.5017 20.5017C19.9625 21.0408 19.2312 21.3437 18.4688 21.3437H5.53125C4.76875 21.3437 4.03749 21.0408 3.49832 20.5017C2.95915 19.9625 2.65625 19.2312 2.65625 18.4687V16.3125C2.65625 16.1219 2.73198 15.939 2.86677 15.8042C3.00156 15.6695 3.18438 15.5937 3.375 15.5937Z" fill="#1E2939" />
</svg>
