<svg xmlns="http://www.w3.org/2000/svg" version="1.1" xmlns:xlink="http://www.w3.org/1999/xlink" xmlns:svgjs="http://svgjs.dev/svgjs" width="100%" height="100%" viewBox="0 0 1000 600"><rect width="1000" height="600" x="0" y="0" fill="transparent"/><g><rect width="333.3333333333333" height="333.3333333333333" rx="13.333333333333334" ry="13.333333333333334" y="169.91299904725633" fill="#8080ff" transform="matrix(0.8463630116474136,0,0,0.8463630116474136,0,15.131418208346759)" x="147.6907958984375"/><path d="M324.51856338387535 411.57967064980346L304.1963705643309 411.57967064980346L304.1963705643309 261.57967431411134L324.51856338387535 261.57967431411134L324.51856338387535 411.57967064980346Z " fill="white" transform="matrix(0.8463630116474136,0,0,0.8463630116474136,0,15.131418208346759)"/><path d="M579.637335008254 379.23691211738856L564.3574672082369 379.23691211738856L564.3574672082369 266.4547859775282L579.637335008254 266.4547859775282L579.637335008254 379.23691211738856ZM672.9190094801457 379.23691211738856L658.2936707291692 379.23691211738856L658.2936707291692 334.23239750404423Q658.2936707291692 325.4526802600167 652.7640287631365 319.7650485235258Q647.2343867971038 314.07741678703496 638.4772395202845 314.07741678703496L638.4772395202845 314.07741678703496Q632.6090480461272 314.07741678703496 628.0724846372595 316.6729630159891Q623.5133512611835 319.2685092449433 620.9178050322294 323.8276426210193Q618.3222588032752 328.364206029887 618.3222588032752 334.23239750404423L618.3222588032752 334.23239750404423L612.2960775586598 330.80176248838313Q612.2960775586598 322.04461521156384 616.2006818856953 315.2059151474499Q620.1052862127306 308.3897850505441 627.1019760473027 304.3949008546756Q634.0760959146664 300.42258662601523 642.855813158694 300.42258662601523L642.855813158694 300.42258662601523Q651.6355304027217 300.42258662601523 658.3839505980025 304.8011602644249Q665.1098008260749 309.2023038700429 669.0144051531104 316.26670360623984Q672.9190094801457 323.3311033424368 672.9190094801457 331.29830176696566L672.9190094801457 331.29830176696566L672.9190094801457 379.23691211738856ZM618.3222588032752 379.23691211738856L603.6969200522987 379.23691211738856L603.6969200522987 302.0476242650127L618.3222588032752 302.0476242650127L618.3222588032752 379.23691211738856ZM727.8543096651408 379.23691211738856L719.2325821915713 379.23691211738856L683.7977336745449 302.0476242650127L700.0481100645188 302.0476242650127L728.4862687469731 367.2071195953663L719.0745924211133 367.2071195953663L747.6707408740256 302.0476242650127L763.2665882149588 302.0476242650127L727.8543096651408 379.23691211738856ZM808.1131130578451 380.861949756386L808.1131130578451 380.861949756386Q796.7378495848634 380.861949756386 787.6421527999196 375.4902975608113Q778.5464560149759 370.14121533244486 773.1748038194012 360.955238678668Q767.8257215910348 351.7692620248911 767.8257215910348 340.39399855190936L767.8257215910348 340.39399855190936Q767.8257215910348 329.1767248493858 773.1748038194012 320.1713079332752Q778.5464560149759 311.1433210499564 787.6421527999196 305.79423882158994Q796.7378495848634 300.42258662601523 808.1131130578451 300.42258662601523L808.1131130578451 300.42258662601523Q819.3303867603687 300.42258662601523 828.5163634141456 305.7039589527568Q837.7023400679225 310.98533127949827 843.0514222962889 320.0810280644421Q848.4230744918636 329.1767248493858 848.4230744918636 340.39399855190936L848.4230744918636 340.39399855190936Q848.4230744918636 351.7692620248911 843.0514222962889 360.955238678668Q837.7023400679225 370.14121533244486 828.5163634141456 375.4902975608113Q819.3303867603687 380.861949756386 808.1131130578451 380.861949756386ZM808.1131130578451 366.733150283992L808.1131130578451 366.733150283992Q815.4257824333333 366.733150283992 821.1134141698242 363.3025152683309Q826.801045906315 359.8944502198781 830.0511211843097 353.95854884409584Q833.3011964623046 348.0452174355221 833.3011964623046 340.39399855190936L833.3011964623046 340.39399855190936Q833.3011964623046 332.923339405963 829.983411282685 327.07771789901415Q826.643056135857 321.23209639206516 821.0457042681993 317.8917412452372Q815.4257824333333 314.55138609840924 808.1131130578451 314.55138609840924L808.1131130578451 314.55138609840924Q800.8004436823569 314.55138609840924 795.112811945866 317.8917412452372Q789.4251802093752 321.23209639206516 786.1751049313804 327.07771789901415Q782.9250296533855 332.923339405963 782.9250296533855 340.39399855190936L782.9250296533855 340.39399855190936Q782.9250296533855 348.0452174355221 786.1751049313804 353.95854884409584Q789.4251802093752 359.8944502198781 795.112811945866 363.3025152683309Q800.8004436823569 366.733150283992 808.1131130578451 366.733150283992ZM879.6147691737301 379.23691211738856L864.9894304227537 379.23691211738856L864.9894304227537 302.0476242650127L879.6147691737301 302.0476242650127L879.6147691737301 379.23691211738856ZM872.3020997982419 286.6097666945375L872.3020997982419 286.6097666945375Q868.2395057007484 286.6097666945375 865.6439594717942 283.9239405967502Q863.0484132428401 281.2381144989628 863.0484132428401 277.1755204014694L863.0484132428401 277.1755204014694Q863.0484132428401 273.29348604164227 865.6439594717942 270.60765994385486Q868.2395057007484 267.92183384606756 872.3020997982419 267.92183384606756L872.3020997982419 267.92183384606756Q876.3646938957354 267.92183384606756 878.9828100918978 270.60765994385486Q881.578356320852 273.29348604164227 881.578356320852 277.1755204014694L881.578356320852 277.1755204014694Q881.578356320852 281.2381144989628 878.9828100918978 283.9239405967502Q876.3646938957354 286.6097666945375 872.3020997982419 286.6097666945375ZM926.9214204423207 379.23691211738856L912.2960816913443 379.23691211738856L912.2960816913443 290.51437102157286Q912.2960816913443 281.89264354800343 916.0201262807133 275.48277286084704Q919.7667408372906 269.0503322064824 926.334601294905 265.3262876171134Q932.9250317197277 261.57967306053604 941.7047489637553 261.57967306053604L941.7047489637553 261.57967306053604Q948.3628892902029 261.57967306053604 953.2380022071951 263.85923974857405Q958.1131151241873 266.1388064366121 962.1757092216808 270.5173800750217L962.1757092216808 270.5173800750217L952.5834731581544 279.9516263680899Q950.4844662077828 277.6720596800519 947.8663500116204 276.45328145080384Q945.2708037826662 275.23450322155577 941.5467591932972 275.23450322155577L941.5467591932972 275.23450322155577Q934.5500693587252 275.23450322155577 930.735744900523 279.29709731904927Q926.9214204423207 283.3596914165428 926.9214204423207 290.51437102157286L926.9214204423207 290.51437102157286L926.9214204423207 379.23691211738856ZM951.4549747977396 315.3639049179079L893.2695993347498 315.3639049179079L893.2695993347498 302.0476242650127L951.4549747977396 302.0476242650127L951.4549747977396 315.3639049179079ZM997.7685475091653 379.8914411664292L988.9888302651376 379.8914411664292L955.5175688952331 302.0476242650127L971.767945285207 302.0476242650127L996.6174791815421 362.9865357274148L991.4263867236338 362.9865357274148L1017.58497871805 302.0476242650127L1033.835355108024 302.0476242650127L997.7685475091653 379.8914411664292ZM983.1432087581887 411.5796751268782L966.8928323682148 411.5796751268782L989.6433593141783 364.9275529073283L997.7685475091653 379.8914411664292L983.1432087581887 411.5796751268782Z " fill="#8080ff" transform="matrix(0.8463630116474136,0,0,0.8463630116474136,0,15.131418208346759)"/></g></svg>