<svg width="568" height="174" viewBox="0 0 568 174" fill="none" xmlns="http://www.w3.org/2000/svg">
<g clip-path="url(#clip0_4_24)">
<path d="M0.106201 135.364V10.59H31.3001V135.364H0.106201Z" fill="black"/>
<path d="M137.082 80.1879V135.478H107.622V91.2301C107.622 77.583 102.893 72.7136 94.4291 72.7136C82.1733 72.7136 79.4633 82.4145 79.4633 89.3884V135.476H50.0029V50.7446H79.4633V61.0775C79.4633 61.0775 86.6459 48.93 105.535 48.93C122.351 48.93 137.082 58.5192 137.082 80.1879Z" fill="black"/>
<path d="M239.868 50.73L206.074 135.471L191.778 135.469L177.486 135.471L143.693 50.73H171.421L191.778 101.791L212.14 50.73H239.868Z" fill="black"/>
<path d="M341.719 93.1744C341.719 118.306 322.133 138.907 292.141 138.907C262.151 138.907 242.566 118.306 242.566 93.1744C242.566 68.0423 262.151 47.67 292.141 47.67C322.133 47.67 341.719 68.0423 341.719 93.1744ZM310.968 93.2877C310.968 82.4167 302.539 73.6032 292.141 73.6032C281.745 73.6032 273.316 82.4167 273.316 93.2877C273.316 104.161 281.745 112.974 292.141 112.974C302.539 112.974 310.968 104.161 310.968 93.2877Z" fill="black"/>
<path d="M353.891 18.2575C353.891 8.95427 361.199 1.41003 370.214 1.41003C379.231 1.41003 386.54 8.95427 386.54 18.2575C386.54 27.5627 379.231 35.1069 370.214 35.1069C361.199 35.1069 353.891 27.5626 353.891 18.2575Z" fill="#7E7E7E"/>
<path d="M355.402 135.527V50.7954H384.864V135.527H355.402Z" fill="black"/>
<path d="M437.662 41.5318V50.8605H457.041V75.121H437.662V135.592H408.202V75.121H398.12V50.8605H408.202V40.0344C408.202 17.9302 422.931 0.150024 444.959 0.150024C452.396 0.150024 458.158 3.28784 458.158 3.28784V29.3846C448.141 24.6916 437.662 23.3971 437.662 41.5318Z" fill="black"/>
<path d="M567.883 50.73L530.832 121.937L523.797 135.471L503.868 173.769H474.408L499.901 123.409L460.614 50.73H495.272L515.842 91.9049L536.69 50.73H567.883Z" fill="black"/>
</g>
<defs>
<clipPath id="clip0_4_24">
<rect width="568" height="174" fill="white"/>
</clipPath>
</defs>
</svg>
