<svg width="429" height="107" viewBox="0 0 429 107" fill="none" xmlns="http://www.w3.org/2000/svg">
<g clip-path="url(#clip0_16_26)">
<path d="M87.5132 66.3924C85.8754 63.1607 84.1202 60.0498 82.2551 57.0696C73.366 70.8668 58.4835 83.2119 39.6274 90.8888L45.9356 106.383C65.4381 98.4443 79.9397 83.686 87.5132 66.3924Z" fill="#4FC1FF"/>
<path d="M48.9278 85.2858C51.5075 83.852 54.002 82.3412 56.4061 80.7595C39.817 72.8081 24.4648 56.202 15.4931 34.1656L0 40.4734C9.27417 63.2589 27.8586 79.2367 48.9278 85.2858Z" fill="#4FC1FF"/>
<path d="M73.7875 15.4942L67.4793 0C45.2867 9.03534 29.5613 26.9037 23.1687 47.2931C24.7196 49.8483 26.3563 52.2992 28.0569 54.6613C36.312 38.7426 52.5269 24.1501 73.7875 15.4942Z" fill="#4FC1FF"/>
<path d="M106.823 65.5263C98.2081 44.367 81.5699 29.0824 62.3687 22.1611C59.5967 23.7875 56.9293 25.5007 54.3745 27.2952C69.4228 35.87 83.0737 51.5588 91.3286 71.8345L106.823 65.5263Z" fill="#4FC1FF"/>
<path d="M55.6809 64.2825C61.0034 64.2825 65.3183 59.9677 65.3183 54.6451C65.3183 49.3225 61.0034 45.0077 55.6809 45.0077C50.3583 45.0077 46.0435 49.3225 46.0435 54.6451C46.0435 59.9677 50.3583 64.2825 55.6809 64.2825Z" fill="#4FC1FF"/>
<path d="M143.19 76.296H129.896V5.66188H143.19V76.296ZM201.423 76.296H188.924V51.9907C188.924 46.6336 184.658 42.467 179.301 42.467C174.142 42.467 169.678 46.7328 169.678 51.9907V76.296H157.277V30.86H169.678V34.1338C172.753 31.0584 176.027 29.9671 179.301 29.9671C185.253 29.9671 190.808 32.2489 194.975 36.3163C199.142 40.5821 201.423 46.1376 201.423 51.9907V76.296ZM234.756 76.296H223.844L205.392 30.86H218.189L229.3 58.0422L240.312 30.86H253.209L234.756 76.296ZM279.994 77.3872C273.843 77.3872 267.792 74.9071 263.129 70.4429C258.665 65.7802 256.185 59.7287 256.185 53.578C256.185 47.3281 258.665 41.2765 263.129 36.7131C267.692 32.3481 273.645 29.8679 279.994 29.8679C286.541 29.8679 292.494 32.3481 296.76 36.7131C301.323 41.2765 303.803 47.2289 303.803 53.578C303.803 59.9271 301.323 65.8794 296.76 70.4429C292.295 74.9071 286.343 77.3872 279.994 77.3872ZM279.994 41.1773C273.347 41.1773 267.891 46.7328 267.891 53.578C267.891 60.4231 273.347 65.9786 279.994 65.9786C286.74 65.9786 292.196 60.4231 292.196 53.578C292.196 46.7328 286.74 41.1773 279.994 41.1773ZM327.91 76.296H315.013V30.86H327.91V76.296ZM321.462 25.4037C317.196 25.4037 313.724 21.9315 313.724 17.7649C313.724 15.6816 314.517 13.7967 316.005 12.4078C317.493 10.9198 319.378 10.1261 321.462 10.1261C325.628 10.1261 329.1 13.5983 329.1 17.7649C329.1 21.9315 325.628 25.4037 321.462 25.4037ZM359.656 76.296H347.652V41.4749H341.204V31.2568H347.652V19.5506C347.652 15.1856 349.338 11.1182 352.314 8.14201C355.489 5.16586 359.556 3.47937 363.822 3.47937H375.925L372.751 15.1856H364.021C361.739 15.1856 359.656 17.2689 359.656 19.749V31.2568H372.85V41.4749H359.656V76.296ZM400.032 102.685H387.036L397.85 76.3952L379.695 30.86H392.989L404.298 59.1335L415.806 30.86H429L400.032 102.685Z" fill="black"/>
</g>
<defs>
<clipPath id="clip0_16_26">
<rect width="429" height="106.383" fill="white"/>
</clipPath>
</defs>
</svg>
